<svg width="582" height="513" xmlns="http://www.w3.org/2000/svg">

 <g>
  <title>background</title>
  <rect fill="none" id="canvas_background" height="515" width="584" y="-1" x="-1"/>
 </g>
 <g>
  <title>Layer 1</title>
  <path id="svg_1" fill="#FFC107" d="m45.667,113.5l490.666985,0c5.890991,0 10.666992,4.776001 10.666992,10.667007l0,362.666977c0,5.890991 -4.776001,10.666992 -10.666992,10.666992l-490.666985,0c-5.890999,-0.000977 -10.667,-4.776978 -10.667,-10.667969l0,-362.666c0,-5.891006 4.776001,-10.667007 10.667,-10.667007z"/>
  <path id="svg_2" fill="#FFE082" d="m493.666992,444.666992l-405.333992,0c-5.890999,0 -10.667,-4.776001 -10.667,-10.666992c0,-5.891022 4.776001,-10.667023 10.667,-10.667023l405.333015,0c5.890991,0 10.666992,4.776001 10.666992,10.667023c0,5.890991 -4.774994,10.666992 -10.666016,10.666992z"/>
  <path id="svg_3" fill="#455A64" d="m429.668945,214.332993c-5.890991,0 -10.666992,-4.776001 -10.666992,-10.667007l0,-127.999992c0,-29.455002 -23.878021,-53.333002 -53.333008,-53.333002l-149.334,0c-29.454987,0.00001 -53.332993,23.878008 -53.332993,53.334009l0,128.000008c0,5.890991 -4.776001,10.666992 -10.666992,10.666992s-10.667007,-4.776001 -10.667007,-10.666992l0,-128.000008c0.000992,-41.237999 33.429993,-74.667 74.666992,-74.667l149.332993,0c41.237,0 74.666992,33.429001 74.666992,74.667l0,0l0,128.000008c0.000031,5.890991 -4.774963,10.665985 -10.665985,10.665985z"/>
  <g id="svg_4"/>
  <g id="svg_5"/>
  <g id="svg_6"/>
  <g id="svg_7"/>
  <g id="svg_8"/>
  <g id="svg_9"/>
  <g id="svg_10"/>
  <g id="svg_11"/>
  <g id="svg_12"/>
  <g id="svg_13"/>
  <g id="svg_14"/>
  <g id="svg_15"/>
  <g id="svg_16"/>
  <g id="svg_17"/>
  <g id="svg_18"/>
  <text transform="matrix(4.70046, 0, 0, 4.62286, -951.653, -965.614)" font-style="italic" font-weight="bold" xml:space="preserve" text-anchor="start" font-family="Georgia, Times, 'Times New Roman', serif" font-size="24" id="svg_19" y="284.591863" x="238.557654" stroke-opacity="null" stroke-width="0" stroke="null" fill="#ffffff">Flex</text>
 </g>
</svg>