<?xml version="1.0"?>
<svg width="519" height="524" xmlns="http://www.w3.org/2000/svg">
 <g>
  <title>background</title>
  <rect x="-1" y="-1" width="521" height="526" id="canvas_background" fill="none"/>
 </g>

 <g>
  <title>Layer 1</title>
  <path stroke="null" d="m40.999809,139.5l437.000374,0c5.246643,0 9.500305,4.776001 9.500305,10.667007l0,362.667038c0,5.89093 -4.253662,10.666931 -9.500305,10.666931l-437.000374,0c-5.246674,-0.000977 -9.500298,-4.776978 -9.500298,-10.667969l0,-362.66597c0,-5.891006 4.253624,-10.667007 9.500298,-10.667007l0,-0.000031z" fill="#FFC107" id="svg_1"/>
  <path stroke="null" d="m436.992401,470.666992l-354.98394,0c-5.159225,0 -9.341957,-4.776001 -9.341957,-10.666992c0,-5.891022 4.182732,-10.667023 9.341957,-10.667023l354.983086,0c5.15921,0 9.341949,4.776001 9.341949,10.667023c0,5.890991 -4.181854,10.666992 -9.341095,10.666992z" fill="#FFE082" id="svg_2"/>
  <path d="m398.16748,213.332993c-5.890991,0 -10.666992,-4.776001 -10.666992,-10.667007l0,-127.999992c0,-29.455002 -23.877991,-53.333002 -53.333008,-53.333002l-149.333984,0c-29.454987,0.00001 -53.332993,23.878008 -53.332993,53.334009l0,128.000023c0,5.890991 -4.776001,10.666992 -10.666992,10.666992s-10.667007,-4.776001 -10.667007,-10.666992l0,-128.000023c0.000992,-41.237999 33.429993,-74.667 74.666992,-74.667l149.333008,0c41.236969,0 74.666992,33.429001 74.666992,74.667l0,0l0,128.000023c0.000031,5.890991 -4.774963,10.66597 -10.666016,10.66597z" fill="#455A64" id="svg_3"/>
  <g id="svg_4"/>
  <g id="svg_5"/>
  <g id="svg_6"/>
  <g id="svg_7"/>
  <g id="svg_8"/>
  <g id="svg_9"/>
  <g id="svg_10"/>
  <g id="svg_11"/>
  <g id="svg_12"/>
  <g id="svg_13"/>
  <g id="svg_14"/>
  <g id="svg_15"/>
  <g id="svg_16"/>
  <g id="svg_17"/>
  <g id="svg_18"/>
  <text fill="#ffffff" stroke="null" stroke-width="0" stroke-opacity="null" x="231.646443" y="290.216087" id="svg_19" font-size="24" font-family="Georgia, Times, 'Times New Roman', serif" text-anchor="start" xml:space="preserve" font-weight="bold" font-style="italic" transform="matrix(4.70046 0 0 4.62286 -951.653 -965.614)">Flex</text>
 </g>
</svg>